<?xml version="1.0" encoding="iso-8859-1"?>
<!-- Uploaded to: SVG Repo, www.svgrepo.com, Generator: SVG Repo Mixer Tools -->
<svg height="800px" width="800px" version="1.1" id="Layer_1" xmlns="http://www.w3.org/2000/svg" xmlns:xlink="http://www.w3.org/1999/xlink" 
	 viewBox="0 0 512 512" xml:space="preserve">
<path style="fill:#507C5C;" d="M65.89,494.581c-2.677,0-5.357-0.661-7.789-1.995c-5.225-2.863-8.456-8.362-8.414-14.318
	l0.426-61.999h-3.184C21.052,416.268,0,395.216,0,369.337V64.35c0-25.879,21.052-46.931,46.929-46.931h418.141
	C490.948,17.419,512,38.472,512,64.35v304.987c0,25.879-21.052,46.931-46.929,46.931H281.386c-8.947,0-16.203-7.256-16.203-16.203
	c0-8.947,7.256-16.203,16.203-16.203h183.684c8.007,0,14.524-6.515,14.524-14.526V64.35c0-8.009-6.515-14.526-14.524-14.526H46.929
	c-8.007,0-14.524,6.515-14.524,14.526v304.987c0,8.009,6.515,14.526,14.524,14.526h19.498c4.316,0,8.455,1.722,11.497,4.785
	c3.041,3.064,4.734,7.212,4.705,11.528l-0.332,48.269l95.694-61.98c7.513-4.866,17.544-2.717,22.408,4.791
	c4.864,7.512,2.719,17.543-4.791,22.408L74.699,491.977C72.026,493.707,68.962,494.581,65.89,494.581z"/>
<path style="fill:#CFF09E;" d="M89.114,309.47V124.219c0-9.767,7.918-17.684,17.684-17.684h298.404
	c9.767,0,17.684,7.918,17.684,17.684V309.47c0,9.767-7.918,17.684-17.684,17.684H106.798
	C97.031,327.154,89.114,319.237,89.114,309.47z"/>
<path style="fill:#507C5C;" d="M405.202,343.357H106.798c-18.685,0-33.886-15.201-33.886-33.886V124.219
	c0-18.685,15.201-33.888,33.886-33.888h298.404c18.685,0,33.886,15.203,33.886,33.888V309.47
	C439.088,328.155,423.887,343.357,405.202,343.357z M106.798,122.737c-0.817,0-1.481,0.664-1.481,1.483V309.47
	c0,0.817,0.664,1.481,1.481,1.481h298.404c0.817,0,1.481-0.664,1.481-1.481V124.219c0-0.818-0.664-1.483-1.481-1.483H106.798z"/>
</svg>